<?xml version="1.0" encoding="utf-8"?>
<!-- Generator: Adobe Illustrator 16.0.0, SVG Export Plug-In . SVG Version: 6.00 Build 0)  -->
<!DOCTYPE svg PUBLIC "-//W3C//DTD SVG 1.1//EN" "http://www.w3.org/Graphics/SVG/1.1/DTD/svg11.dtd">
<svg version="1.1" id="Layer_1" xmlns="http://www.w3.org/2000/svg" xmlns:xlink="http://www.w3.org/1999/xlink" x="0px" y="0px"
	 width="24px" height="28px" viewBox="0 0 24 28" enable-background="new 0 0 24 28" xml:space="preserve">
<rect x="-214.416" y="-138.882" fill="#ED1C24" width="107.499" height="52.303"/>
<path fill="#ED1C24" d="M-107.126-145.01v-0.008v-0.007c-0.055-0.199-0.11-0.39-0.165-0.572c-0.016-0.046-0.028-0.089-0.053-0.143
	c-0.063-0.172-0.125-0.354-0.194-0.525c-0.079-0.168-0.149-0.338-0.226-0.494c-0.023-0.035-0.055-0.074-0.07-0.109
	c-0.063-0.155-0.147-0.303-0.234-0.438c0,0-0.008,0-0.008-0.016c-0.092-0.141-0.171-0.265-0.257-0.39
	c-0.016-0.027-0.037-0.058-0.061-0.074c-0.094-0.121-0.173-0.249-0.265-0.35c0-0.007-0.017-0.023-0.017-0.023
	c-0.077-0.108-0.154-0.21-0.232-0.299c0-0.016-0.023-0.031-0.04-0.047c-0.093-0.089-0.179-0.175-0.241-0.261v-0.011
	c-0.045-0.035-0.1-0.086-0.14-0.124l-0.396-0.358c-0.071-0.062-0.124-0.105-0.124-0.105h-0.008l-0.008-0.02l-5.343-4.883v0.05
	l-14.107-12.822h0.094l-6.299-5.735c-0.265-0.281-0.59-0.541-0.902-0.759c-0.87-0.606-1.941-0.968-2.86-1.167
	c-1.042-0.269-1.843-0.315-1.843-0.315l-0.047,0.008c-0.116,0-0.179-0.008-0.179-0.008h-61.573c-6.349,0-11.493,4.849-11.493,10.825
	v103.341c0,6.013,5.144,10.849,11.493,10.849h84.519c6.339,0,11.487-4.836,11.487-10.849v-82.762
	C-106.948-144.108-107.026-144.579-107.126-145.01z M-115.207-61.407c0,1.89-1.633,3.43-3.641,3.43h-83.644
	c-2.007,0-3.627-1.54-3.627-3.43v-102.204c0-1.89,1.621-3.429,3.627-3.429h58.265c0,0,3.815,1.255,8.561,5.606l13.834,12.656
	c0,0,6.625,5.264,6.625,8.017V-61.407z"/>
<text transform="matrix(1 0 0 1 -100.9165 6.791)" fill="#ED1C24" font-family="'MyriadPro-Regular'" font-size="11">pdf</text>
<path fill="#ED1C24" d="M-82.705-2.371v-0.001v-0.001c-0.01-0.038-0.021-0.074-0.031-0.109c-0.003-0.009-0.006-0.017-0.009-0.026
	c-0.013-0.033-0.023-0.067-0.037-0.1c-0.014-0.032-0.027-0.064-0.042-0.094c-0.004-0.007-0.01-0.013-0.012-0.021
	c-0.014-0.029-0.029-0.058-0.045-0.083c0,0-0.001,0-0.002-0.003c-0.016-0.027-0.031-0.05-0.047-0.074
	c-0.004-0.005-0.008-0.011-0.011-0.014c-0.018-0.023-0.033-0.046-0.05-0.066c0-0.001-0.002-0.004-0.002-0.004
	c-0.016-0.021-0.03-0.04-0.045-0.057c-0.001-0.003-0.005-0.006-0.008-0.009c-0.016-0.018-0.031-0.033-0.045-0.049v-0.002
	c-0.008-0.007-0.018-0.016-0.025-0.024l-0.073-0.068c-0.014-0.012-0.023-0.02-0.023-0.02h-0.001l-0.002-0.004l-0.995-0.925v0.009
	l-2.624-2.431h0.019l-1.171-1.087c-0.052-0.053-0.11-0.103-0.171-0.144c-0.161-0.115-0.36-0.183-0.529-0.221
	c-0.195-0.05-0.345-0.06-0.345-0.06l-0.008,0.001c-0.021,0-0.034-0.001-0.034-0.001h-11.455c-1.182,0-2.139,0.919-2.139,2.053
	v19.591c0,1.138,0.957,2.056,2.139,2.056h15.724c1.181,0,2.138-0.918,2.138-2.056v-15.69C-82.672-2.2-82.685-2.289-82.705-2.371z
	 M-84.209,13.478c0,0.359-0.302,0.65-0.676,0.65h-15.563c-0.374,0-0.675-0.291-0.675-0.65V-5.897c0-0.358,0.302-0.65,0.675-0.65
	h10.841c0,0,0.708,0.238,1.593,1.063l2.573,2.399c0,0,1.231,0.998,1.231,1.52V13.478z"/>
<text transform="matrix(1.0189 0 0 1 -214.4175 -91.8516)" fill="#FFFFFF" font-family="'MyriadPro-Bold'" font-size="58.0253">PDF</text>
<rect x="0.351" y="8.22" fill="#ED1C24" width="23.298" height="11.464"/>
<path fill="#ED1C24" d="M23.606,6.878V6.875V6.874c-0.012-0.043-0.025-0.085-0.037-0.125c-0.004-0.01-0.007-0.02-0.011-0.031
	c-0.014-0.038-0.027-0.078-0.044-0.114c-0.016-0.038-0.031-0.075-0.047-0.109c-0.005-0.009-0.012-0.016-0.014-0.024
	c-0.017-0.034-0.034-0.066-0.053-0.095c0,0-0.002,0-0.002-0.004c-0.019-0.03-0.037-0.058-0.055-0.086
	c-0.005-0.005-0.01-0.012-0.014-0.016c-0.021-0.027-0.039-0.055-0.058-0.078c0-0.001-0.002-0.004-0.002-0.004
	c-0.019-0.025-0.036-0.045-0.052-0.065c-0.003-0.003-0.007-0.007-0.01-0.01c-0.018-0.021-0.036-0.038-0.052-0.058V6.052
	c-0.01-0.008-0.021-0.018-0.03-0.027l-0.086-0.079c-0.016-0.014-0.027-0.023-0.027-0.023l0,0l-0.002-0.004l-1.161-1.07v0.011
	l-3.056-2.81h0.021l-1.362-1.256c-0.062-0.062-0.13-0.12-0.2-0.167c-0.187-0.133-0.419-0.213-0.617-0.255
	c-0.228-0.059-0.4-0.07-0.4-0.07l-0.009,0.002c-0.025,0-0.041-0.002-0.041-0.002H2.843c-1.377,0-2.492,1.063-2.492,2.373v22.65
	c0,1.315,1.115,2.377,2.492,2.377H21.16c1.374,0,2.489-1.062,2.489-2.377V7.185C23.643,7.074,23.629,6.972,23.606,6.878z
	 M21.852,25.2c0,0.416-0.351,0.752-0.787,0.752H2.936c-0.436,0-0.787-0.336-0.787-0.752V2.8c0-0.414,0.351-0.751,0.787-0.751h12.629
	c0,0,0.823,0.274,1.854,1.229l2.998,2.774c0,0,1.434,1.154,1.434,1.757V25.2z"/>
<text transform="matrix(1.0076 0 0 1 0.3511 18.5264)" fill="#FFFFFF" font-family="'MyriadPro-Bold'" font-size="12.7176">PDF</text>
</svg>
